<mxfile host="app.diagrams.net" agent="Mozilla/5.0 (Windows NT 10.0; Win64; x64) AppleWebKit/537.36 (KHTML, like Gecko) Chrome/134.0.0.0 Safari/537.36" version="26.1.0">
  <diagram name="Trang-1" id="eQw4BYw5UpwCpBsreAdn">
    <mxGraphModel dx="1500" dy="796" grid="1" gridSize="10" guides="1" tooltips="1" connect="1" arrows="1" fold="1" page="1" pageScale="1" pageWidth="2339" pageHeight="3300" math="0" shadow="0">
      <root>
        <mxCell id="0" />
        <mxCell id="1" parent="0" />
        <mxCell id="uEizGW2Jhpf34SG__IlC-113" value="" style="rounded=0;whiteSpace=wrap;html=1;" parent="1" vertex="1">
          <mxGeometry x="920" y="600" width="920" height="860" as="geometry" />
        </mxCell>
        <mxCell id="uEizGW2Jhpf34SG__IlC-19" value="&lt;font style=&quot;font-size: 18px;&quot;&gt;Quản lí&lt;/font&gt;" style="shape=umlActor;verticalLabelPosition=bottom;verticalAlign=top;html=1;outlineConnect=0;" parent="1" vertex="1">
          <mxGeometry x="2000" y="740" width="60" height="120" as="geometry" />
        </mxCell>
        <mxCell id="uEizGW2Jhpf34SG__IlC-20" value="&lt;font style=&quot;font-size: 14px;&quot;&gt;Quản lý xe khách&lt;/font&gt;" style="ellipse;whiteSpace=wrap;html=1;" parent="1" vertex="1">
          <mxGeometry x="1360" y="760" width="210" height="50" as="geometry" />
        </mxCell>
        <mxCell id="uEizGW2Jhpf34SG__IlC-22" value="&lt;font style=&quot;font-size: 14px;&quot;&gt;Quản lý tuyến đường&lt;/font&gt;" style="ellipse;whiteSpace=wrap;html=1;" parent="1" vertex="1">
          <mxGeometry x="1360" y="870" width="210" height="50" as="geometry" />
        </mxCell>
        <mxCell id="uEizGW2Jhpf34SG__IlC-23" value="&lt;font style=&quot;font-size: 14px;&quot;&gt;Quản lý vé đã đặt&lt;/font&gt;" style="ellipse;whiteSpace=wrap;html=1;" parent="1" vertex="1">
          <mxGeometry x="1460" y="940" width="210" height="50" as="geometry" />
        </mxCell>
        <mxCell id="uEizGW2Jhpf34SG__IlC-27" value="&lt;font style=&quot;font-size: 14px;&quot;&gt;Thống kê &amp;amp; báo cáo doanh thu&lt;/font&gt;" style="ellipse;whiteSpace=wrap;html=1;" parent="1" vertex="1">
          <mxGeometry x="1370" y="640" width="210" height="60" as="geometry" />
        </mxCell>
        <mxCell id="uEizGW2Jhpf34SG__IlC-57" value="&lt;font style=&quot;font-size: 14px;&quot;&gt;Xác nhận giao dịch&lt;/font&gt;" style="ellipse;whiteSpace=wrap;html=1;" parent="1" vertex="1">
          <mxGeometry x="1130" y="1310" width="180" height="50" as="geometry" />
        </mxCell>
        <mxCell id="uEizGW2Jhpf34SG__IlC-58" value="&lt;font style=&quot;font-size: 14px;&quot;&gt;Hoàn tiền (nếu có)&lt;/font&gt;" style="ellipse;whiteSpace=wrap;html=1;" parent="1" vertex="1">
          <mxGeometry x="1440" y="1380" width="200" height="50" as="geometry" />
        </mxCell>
        <mxCell id="uEizGW2Jhpf34SG__IlC-60" value="&lt;span style=&quot;font-size: 14px;&quot;&gt;Đăng ký&lt;/span&gt;" style="ellipse;whiteSpace=wrap;html=1;" parent="1" vertex="1">
          <mxGeometry x="1080" y="680" width="150" height="50" as="geometry" />
        </mxCell>
        <mxCell id="uEizGW2Jhpf34SG__IlC-62" value="&lt;span style=&quot;font-size: 14px;&quot;&gt;Cập nhật thông tin cá nhân&lt;/span&gt;" style="ellipse;whiteSpace=wrap;html=1;" parent="1" vertex="1">
          <mxGeometry x="1064.5" y="1090" width="195" height="60" as="geometry" />
        </mxCell>
        <mxCell id="uEizGW2Jhpf34SG__IlC-63" value="&lt;span style=&quot;font-size: 14px;&quot;&gt;Tìm kiếm chuyến xe&lt;/span&gt;" style="ellipse;whiteSpace=wrap;html=1;" parent="1" vertex="1">
          <mxGeometry x="1074.5" y="940" width="160" height="50" as="geometry" />
        </mxCell>
        <mxCell id="uEizGW2Jhpf34SG__IlC-64" value="&lt;span style=&quot;font-size: 14px;&quot;&gt;Lọc &amp;amp; sắp xếp kết quả&lt;/span&gt;" style="ellipse;whiteSpace=wrap;html=1;" parent="1" vertex="1">
          <mxGeometry x="1400" y="1150" width="195" height="50" as="geometry" />
        </mxCell>
        <mxCell id="uEizGW2Jhpf34SG__IlC-65" value="&lt;span style=&quot;font-size: 14px;&quot;&gt;Đặt vé&lt;/span&gt;" style="ellipse;whiteSpace=wrap;html=1;" parent="1" vertex="1">
          <mxGeometry x="1064.5" y="780" width="180" height="50" as="geometry" />
        </mxCell>
        <mxCell id="uEizGW2Jhpf34SG__IlC-69" value="&lt;span style=&quot;font-size: 14px;&quot;&gt;Nhập thông tin hành khách&lt;/span&gt;" style="ellipse;whiteSpace=wrap;html=1;" parent="1" vertex="1">
          <mxGeometry x="670" y="570" width="195" height="60" as="geometry" />
        </mxCell>
        <mxCell id="uEizGW2Jhpf34SG__IlC-72" value="&lt;span style=&quot;font-size: 14px;&quot;&gt;Chọn phương thức thanh toán&lt;/span&gt;" style="ellipse;whiteSpace=wrap;html=1;" parent="1" vertex="1">
          <mxGeometry x="670" y="650" width="190" height="57.5" as="geometry" />
        </mxCell>
        <mxCell id="uEizGW2Jhpf34SG__IlC-73" value="&lt;span style=&quot;font-size: 14px;&quot;&gt;Thực hiện thanh toán&lt;/span&gt;" style="ellipse;whiteSpace=wrap;html=1;" parent="1" vertex="1">
          <mxGeometry x="1480" y="1260" width="210" height="60" as="geometry" />
        </mxCell>
        <mxCell id="uEizGW2Jhpf34SG__IlC-74" value="&lt;span style=&quot;font-size: 14px;&quot;&gt;Xem danh sách vé đã đặt&lt;/span&gt;" style="ellipse;whiteSpace=wrap;html=1;" parent="1" vertex="1">
          <mxGeometry x="1064.5" y="1200" width="190" height="60" as="geometry" />
        </mxCell>
        <mxCell id="uEizGW2Jhpf34SG__IlC-75" value="&lt;span style=&quot;font-size: 14px;&quot;&gt;Hủy vé&lt;/span&gt;" style="ellipse;whiteSpace=wrap;html=1;" parent="1" vertex="1">
          <mxGeometry x="1040" y="1390" width="160" height="45" as="geometry" />
        </mxCell>
        <mxCell id="uEizGW2Jhpf34SG__IlC-79" value="" style="endArrow=none;html=1;rounded=0;entryX=0;entryY=0.5;entryDx=0;entryDy=0;" parent="1" source="uEizGW2Jhpf34SG__IlC-31" target="uEizGW2Jhpf34SG__IlC-60" edge="1">
          <mxGeometry width="50" height="50" relative="1" as="geometry">
            <mxPoint x="630" y="750" as="sourcePoint" />
            <mxPoint x="680" y="700" as="targetPoint" />
          </mxGeometry>
        </mxCell>
        <mxCell id="uEizGW2Jhpf34SG__IlC-80" value="" style="endArrow=none;html=1;rounded=0;exitX=1;exitY=0.5;exitDx=0;exitDy=0;" parent="1" source="uEizGW2Jhpf34SG__IlC-27" target="uEizGW2Jhpf34SG__IlC-19" edge="1">
          <mxGeometry width="50" height="50" relative="1" as="geometry">
            <mxPoint x="1890" y="850" as="sourcePoint" />
            <mxPoint x="1940" y="800" as="targetPoint" />
          </mxGeometry>
        </mxCell>
        <mxCell id="uEizGW2Jhpf34SG__IlC-81" value="" style="endArrow=none;html=1;rounded=0;exitX=1;exitY=0.5;exitDx=0;exitDy=0;" parent="1" source="uEizGW2Jhpf34SG__IlC-20" target="uEizGW2Jhpf34SG__IlC-19" edge="1">
          <mxGeometry width="50" height="50" relative="1" as="geometry">
            <mxPoint x="1830" y="1040" as="sourcePoint" />
            <mxPoint x="1880" y="990" as="targetPoint" />
          </mxGeometry>
        </mxCell>
        <mxCell id="uEizGW2Jhpf34SG__IlC-82" value="" style="endArrow=none;html=1;rounded=0;exitX=1;exitY=0.5;exitDx=0;exitDy=0;" parent="1" source="uEizGW2Jhpf34SG__IlC-22" target="uEizGW2Jhpf34SG__IlC-19" edge="1">
          <mxGeometry width="50" height="50" relative="1" as="geometry">
            <mxPoint x="1940" y="1100" as="sourcePoint" />
            <mxPoint x="1990" y="1050" as="targetPoint" />
          </mxGeometry>
        </mxCell>
        <mxCell id="uEizGW2Jhpf34SG__IlC-83" value="" style="endArrow=none;html=1;rounded=0;exitX=1;exitY=0.5;exitDx=0;exitDy=0;" parent="1" source="uEizGW2Jhpf34SG__IlC-23" target="uEizGW2Jhpf34SG__IlC-19" edge="1">
          <mxGeometry width="50" height="50" relative="1" as="geometry">
            <mxPoint x="1960" y="1270" as="sourcePoint" />
            <mxPoint x="2010" y="1220" as="targetPoint" />
          </mxGeometry>
        </mxCell>
        <mxCell id="uEizGW2Jhpf34SG__IlC-86" value="&lt;font style=&quot;font-size: 18px;&quot;&gt;Hệ thống&lt;/font&gt;" style="shape=umlActor;verticalLabelPosition=bottom;verticalAlign=top;html=1;outlineConnect=0;" parent="1" vertex="1">
          <mxGeometry x="2000" y="1150" width="60" height="120" as="geometry" />
        </mxCell>
        <mxCell id="uEizGW2Jhpf34SG__IlC-92" style="edgeStyle=orthogonalEdgeStyle;rounded=0;orthogonalLoop=1;jettySize=auto;html=1;exitX=0.5;exitY=1;exitDx=0;exitDy=0;" parent="1" source="uEizGW2Jhpf34SG__IlC-27" target="uEizGW2Jhpf34SG__IlC-27" edge="1">
          <mxGeometry relative="1" as="geometry" />
        </mxCell>
        <mxCell id="uEizGW2Jhpf34SG__IlC-93" value="" style="endArrow=none;html=1;rounded=0;entryX=0;entryY=0.5;entryDx=0;entryDy=0;" parent="1" source="uEizGW2Jhpf34SG__IlC-31" target="uEizGW2Jhpf34SG__IlC-65" edge="1">
          <mxGeometry width="50" height="50" relative="1" as="geometry">
            <mxPoint x="1290" y="1050" as="sourcePoint" />
            <mxPoint x="1340" y="1000" as="targetPoint" />
          </mxGeometry>
        </mxCell>
        <mxCell id="uEizGW2Jhpf34SG__IlC-97" value="" style="endArrow=none;html=1;rounded=0;exitX=1;exitY=0.5;exitDx=0;exitDy=0;" parent="1" source="uEizGW2Jhpf34SG__IlC-65" target="uEizGW2Jhpf34SG__IlC-86" edge="1">
          <mxGeometry width="50" height="50" relative="1" as="geometry">
            <mxPoint x="1240" y="1150" as="sourcePoint" />
            <mxPoint x="1340" y="1000" as="targetPoint" />
            <Array as="points">
              <mxPoint x="1430" y="990" />
            </Array>
          </mxGeometry>
        </mxCell>
        <mxCell id="uEizGW2Jhpf34SG__IlC-98" value="" style="endArrow=none;html=1;rounded=0;entryX=0;entryY=0.5;entryDx=0;entryDy=0;" parent="1" source="uEizGW2Jhpf34SG__IlC-31" target="uEizGW2Jhpf34SG__IlC-63" edge="1">
          <mxGeometry width="50" height="50" relative="1" as="geometry">
            <mxPoint x="580" y="1130" as="sourcePoint" />
            <mxPoint x="630" y="1080" as="targetPoint" />
          </mxGeometry>
        </mxCell>
        <mxCell id="uEizGW2Jhpf34SG__IlC-99" value="" style="endArrow=none;html=1;rounded=0;exitX=1;exitY=0.5;exitDx=0;exitDy=0;" parent="1" source="uEizGW2Jhpf34SG__IlC-63" target="uEizGW2Jhpf34SG__IlC-86" edge="1">
          <mxGeometry width="50" height="50" relative="1" as="geometry">
            <mxPoint x="1260" y="1340" as="sourcePoint" />
            <mxPoint x="1310" y="1290" as="targetPoint" />
            <Array as="points" />
          </mxGeometry>
        </mxCell>
        <mxCell id="uEizGW2Jhpf34SG__IlC-101" value="" style="endArrow=none;html=1;rounded=0;entryX=0;entryY=0.5;entryDx=0;entryDy=0;" parent="1" source="uEizGW2Jhpf34SG__IlC-31" target="uEizGW2Jhpf34SG__IlC-62" edge="1">
          <mxGeometry width="50" height="50" relative="1" as="geometry">
            <mxPoint x="1680" y="1350" as="sourcePoint" />
            <mxPoint x="1740" y="1340" as="targetPoint" />
          </mxGeometry>
        </mxCell>
        <mxCell id="uEizGW2Jhpf34SG__IlC-102" value="" style="endArrow=classic;html=1;rounded=0;exitX=1;exitY=0;exitDx=0;exitDy=0;entryX=0;entryY=0.5;entryDx=0;entryDy=0;" parent="1" source="uEizGW2Jhpf34SG__IlC-74" target="uEizGW2Jhpf34SG__IlC-64" edge="1">
          <mxGeometry width="50" height="50" relative="1" as="geometry">
            <mxPoint x="1185" y="930" as="sourcePoint" />
            <mxPoint x="1322" y="891" as="targetPoint" />
          </mxGeometry>
        </mxCell>
        <mxCell id="uEizGW2Jhpf34SG__IlC-103" value="&lt;font style=&quot;font-size: 14px;&quot;&gt;(include)&lt;/font&gt;" style="edgeLabel;html=1;align=center;verticalAlign=middle;resizable=0;points=[];" parent="uEizGW2Jhpf34SG__IlC-102" vertex="1" connectable="0">
          <mxGeometry x="0.0297" relative="1" as="geometry">
            <mxPoint as="offset" />
          </mxGeometry>
        </mxCell>
        <mxCell id="uEizGW2Jhpf34SG__IlC-104" value="" style="endArrow=none;html=1;rounded=0;exitX=1;exitY=0.5;exitDx=0;exitDy=0;" parent="1" source="uEizGW2Jhpf34SG__IlC-64" target="uEizGW2Jhpf34SG__IlC-86" edge="1">
          <mxGeometry width="50" height="50" relative="1" as="geometry">
            <mxPoint x="1750" y="1290" as="sourcePoint" />
            <mxPoint x="1800" y="1240" as="targetPoint" />
          </mxGeometry>
        </mxCell>
        <mxCell id="uEizGW2Jhpf34SG__IlC-106" value="" style="endArrow=none;html=1;rounded=0;exitX=1;exitY=0.5;exitDx=0;exitDy=0;" parent="1" source="uEizGW2Jhpf34SG__IlC-73" target="uEizGW2Jhpf34SG__IlC-86" edge="1">
          <mxGeometry width="50" height="50" relative="1" as="geometry">
            <mxPoint x="1780" y="1380" as="sourcePoint" />
            <mxPoint x="2000" y="1358.333333333333" as="targetPoint" />
          </mxGeometry>
        </mxCell>
        <mxCell id="uEizGW2Jhpf34SG__IlC-108" value="" style="endArrow=none;html=1;rounded=0;exitX=1;exitY=0.5;exitDx=0;exitDy=0;" parent="1" source="uEizGW2Jhpf34SG__IlC-58" target="uEizGW2Jhpf34SG__IlC-86" edge="1">
          <mxGeometry width="50" height="50" relative="1" as="geometry">
            <mxPoint x="1290" y="1050" as="sourcePoint" />
            <mxPoint x="2000" y="1380" as="targetPoint" />
          </mxGeometry>
        </mxCell>
        <mxCell id="uEizGW2Jhpf34SG__IlC-111" value="" style="endArrow=none;html=1;rounded=0;entryX=0;entryY=0.5;entryDx=0;entryDy=0;" parent="1" source="uEizGW2Jhpf34SG__IlC-31" target="uEizGW2Jhpf34SG__IlC-75" edge="1">
          <mxGeometry width="50" height="50" relative="1" as="geometry">
            <mxPoint x="1130" y="1200" as="sourcePoint" />
            <mxPoint x="1180" y="1150" as="targetPoint" />
          </mxGeometry>
        </mxCell>
        <mxCell id="uEizGW2Jhpf34SG__IlC-116" value="" style="endArrow=none;html=1;rounded=0;entryX=0;entryY=0.5;entryDx=0;entryDy=0;" parent="1" target="uEizGW2Jhpf34SG__IlC-57" edge="1" source="uEizGW2Jhpf34SG__IlC-31">
          <mxGeometry width="50" height="50" relative="1" as="geometry">
            <mxPoint x="710" y="990" as="sourcePoint" />
            <mxPoint x="1520" y="1040" as="targetPoint" />
            <Array as="points">
              <mxPoint x="1020" y="1340" />
            </Array>
          </mxGeometry>
        </mxCell>
        <mxCell id="uEizGW2Jhpf34SG__IlC-117" style="edgeStyle=orthogonalEdgeStyle;rounded=0;orthogonalLoop=1;jettySize=auto;html=1;exitX=0.5;exitY=1;exitDx=0;exitDy=0;" parent="1" source="uEizGW2Jhpf34SG__IlC-58" target="uEizGW2Jhpf34SG__IlC-58" edge="1">
          <mxGeometry relative="1" as="geometry" />
        </mxCell>
        <mxCell id="uEizGW2Jhpf34SG__IlC-118" value="" style="endArrow=classic;html=1;rounded=0;exitX=1;exitY=0.5;exitDx=0;exitDy=0;entryX=0;entryY=0.5;entryDx=0;entryDy=0;" parent="1" source="uEizGW2Jhpf34SG__IlC-75" target="uEizGW2Jhpf34SG__IlC-58" edge="1">
          <mxGeometry width="50" height="50" relative="1" as="geometry">
            <mxPoint x="1470" y="1090" as="sourcePoint" />
            <mxPoint x="1520" y="1040" as="targetPoint" />
          </mxGeometry>
        </mxCell>
        <mxCell id="lXZk2vxQ-LYqVD-5i1Ev-1" value="&lt;span style=&quot;font-size: 14px;&quot;&gt;(include)&lt;/span&gt;" style="edgeLabel;html=1;align=center;verticalAlign=middle;resizable=0;points=[];" vertex="1" connectable="0" parent="uEizGW2Jhpf34SG__IlC-118">
          <mxGeometry x="-0.1092" relative="1" as="geometry">
            <mxPoint x="-1" as="offset" />
          </mxGeometry>
        </mxCell>
        <mxCell id="uEizGW2Jhpf34SG__IlC-122" style="edgeStyle=orthogonalEdgeStyle;rounded=0;orthogonalLoop=1;jettySize=auto;html=1;exitX=0.5;exitY=1;exitDx=0;exitDy=0;" parent="1" source="uEizGW2Jhpf34SG__IlC-65" target="uEizGW2Jhpf34SG__IlC-65" edge="1">
          <mxGeometry relative="1" as="geometry" />
        </mxCell>
        <mxCell id="uEizGW2Jhpf34SG__IlC-123" style="edgeStyle=orthogonalEdgeStyle;rounded=0;orthogonalLoop=1;jettySize=auto;html=1;exitX=0.5;exitY=1;exitDx=0;exitDy=0;" parent="1" source="uEizGW2Jhpf34SG__IlC-57" target="uEizGW2Jhpf34SG__IlC-57" edge="1">
          <mxGeometry relative="1" as="geometry" />
        </mxCell>
        <mxCell id="uEizGW2Jhpf34SG__IlC-124" value="" style="endArrow=classic;html=1;rounded=0;entryX=1;entryY=0.5;entryDx=0;entryDy=0;exitX=0;exitY=0.5;exitDx=0;exitDy=0;" parent="1" source="uEizGW2Jhpf34SG__IlC-73" target="uEizGW2Jhpf34SG__IlC-57" edge="1">
          <mxGeometry width="50" height="50" relative="1" as="geometry">
            <mxPoint x="1110" y="945" as="sourcePoint" />
            <mxPoint x="1220" y="971" as="targetPoint" />
          </mxGeometry>
        </mxCell>
        <mxCell id="uEizGW2Jhpf34SG__IlC-125" value="&lt;font style=&quot;font-size: 14px;&quot;&gt;(include)&lt;/font&gt;" style="edgeLabel;html=1;align=center;verticalAlign=middle;resizable=0;points=[];" parent="uEizGW2Jhpf34SG__IlC-124" vertex="1" connectable="0">
          <mxGeometry x="-0.0545" y="-1" relative="1" as="geometry">
            <mxPoint as="offset" />
          </mxGeometry>
        </mxCell>
        <mxCell id="uEizGW2Jhpf34SG__IlC-127" value="" style="endArrow=none;html=1;rounded=0;entryX=0;entryY=0.5;entryDx=0;entryDy=0;" parent="1" source="uEizGW2Jhpf34SG__IlC-31" target="uEizGW2Jhpf34SG__IlC-74" edge="1">
          <mxGeometry width="50" height="50" relative="1" as="geometry">
            <mxPoint x="1070" y="1300" as="sourcePoint" />
            <mxPoint x="720" y="1220" as="targetPoint" />
            <Array as="points" />
          </mxGeometry>
        </mxCell>
        <mxCell id="uEizGW2Jhpf34SG__IlC-128" style="edgeStyle=orthogonalEdgeStyle;rounded=0;orthogonalLoop=1;jettySize=auto;html=1;exitX=0.5;exitY=1;exitDx=0;exitDy=0;" parent="1" source="uEizGW2Jhpf34SG__IlC-60" target="uEizGW2Jhpf34SG__IlC-60" edge="1">
          <mxGeometry relative="1" as="geometry" />
        </mxCell>
        <mxCell id="uEizGW2Jhpf34SG__IlC-31" value="&lt;font style=&quot;font-size: 18px;&quot;&gt;Khách hàng&lt;/font&gt;" style="shape=umlActor;verticalLabelPosition=bottom;verticalAlign=top;html=1;outlineConnect=0;" parent="1" vertex="1">
          <mxGeometry x="680" y="920" width="60" height="125" as="geometry" />
        </mxCell>
      </root>
    </mxGraphModel>
  </diagram>
</mxfile>
